<?xml version="1.0" encoding="UTF-8" standalone="no"?>
<!-- Created with Inkscape (http://www.inkscape.org/) -->

<svg
   xmlns:dc="http://purl.org/dc/elements/1.1/"
   xmlns:cc="http://creativecommons.org/ns#"
   xmlns:rdf="http://www.w3.org/1999/02/22-rdf-syntax-ns#"
   xmlns:svg="http://www.w3.org/2000/svg"
   xmlns="http://www.w3.org/2000/svg"
   xmlns:sodipodi="http://sodipodi.sourceforge.net/DTD/sodipodi-0.dtd"
   xmlns:inkscape="http://www.inkscape.org/namespaces/inkscape"
   width="70mm"
   height="70mm"
   viewBox="0 0 70 70"
   version="1.1"
   id="svg8"
   inkscape:version="0.92.4 5da689c313, 2019-01-14"
   sodipodi:docname="c-sharp-logo.svg">
  <defs
     id="defs2" />
  <sodipodi:namedview
     id="base"
     pagecolor="#ffffff"
     bordercolor="#666666"
     borderopacity="1.0"
     inkscape:pageopacity="0.0"
     inkscape:pageshadow="2"
     inkscape:zoom="0.98994949"
     inkscape:cx="210.97024"
     inkscape:cy="400.13542"
     inkscape:document-units="mm"
     inkscape:current-layer="layer1"
     showgrid="false"
     inkscape:window-width="1920"
     inkscape:window-height="1026"
     inkscape:window-x="0"
     inkscape:window-y="26"
     inkscape:window-maximized="1" />
  <metadata
     id="metadata5">
    <rdf:RDF>
      <cc:Work
         rdf:about="">
        <dc:format>image/svg+xml</dc:format>
        <dc:type
           rdf:resource="http://purl.org/dc/dcmitype/StillImage" />
        <dc:title></dc:title>
      </cc:Work>
    </rdf:RDF>
  </metadata>
  <g
     inkscape:label="Layer 1"
     inkscape:groupmode="layer"
     id="layer1"
     transform="translate(0,-227)">
    <g
       id="g73"
       transform="translate(82.224656,166.7357)">
      <path
         style="fill:#000000;stroke-width:0.13229166"
         d="m -47.365656,61.494224 c -1.258454,0.01536 -2.329667,0.528812 -6.053894,2.684592 -2.038922,1.180235 -7.689509,4.433777 -12.557374,7.230049 -5.856449,3.364151 -9.080767,5.292969 -9.530686,5.700943 -0.78477,0.711618 -1.302242,1.588373 -1.590598,2.695443 -0.304472,1.168942 -0.305911,29.896229 -0.0015,31.089059 0.234159,0.91774 0.960911,2.02156 1.795237,2.72748 0.320924,0.27153 5.822178,3.51138 12.225094,7.19956 12.996378,7.48613 13.64484,7.84805 14.485938,8.08737 0.807373,0.2297 2.540928,0.13287 3.380155,-0.18914 0.524055,-0.20107 15.10153,-8.50574 20.49849,-11.67784 0.582091,-0.34212 2.032032,-1.18188 3.222543,-1.86604 2.913351,-1.67423 3.854746,-2.6688 4.244184,-4.48499 0.11607,-0.54132 0.145333,-4.5889 0.114723,-15.808858 l -0.04083,-15.08125 -0.393774,-0.908473 c -0.577361,-1.33235 -1.358262,-2.03649 -3.856612,-3.47834 -17.681691,-10.204487 -22.995355,-13.240155 -23.645068,-13.507185 -0.451848,-0.185709 -1.177224,-0.349385 -1.736844,-0.391708 -0.195705,-0.0148 -0.37936,-0.02287 -0.559139,-0.02067 z M -47.97854,75.37503 c 0.232278,-0.003 0.471604,-0.0027 0.714685,5.19e-4 1.620536,0.02171 3.41472,0.179893 4.491199,0.434599 2.575327,0.609351 4.765773,1.569151 6.945312,3.043224 1.55025,1.04847 4.135636,3.630084 5.157825,5.150073 0.697301,1.036872 0.759079,1.181367 0.57981,1.36064 -0.28534,0.285343 -8.182861,4.821413 -8.394319,4.821413 -0.09639,0 -0.350554,-0.253011 -0.564824,-0.56224 -1.206151,-1.740747 -3.150087,-3.151693 -5.245158,-3.80597 -1.419056,-0.443164 -3.630798,-0.505183 -5.139738,-0.144177 -1.783231,0.42663 -3.331853,1.287137 -4.650361,2.584339 -1.23435,1.214395 -1.993228,2.408877 -2.528012,3.978568 -0.514033,1.508779 -0.600834,3.902406 -0.199472,5.489586 0.347673,1.374852 1.145405,3.026066 1.902727,3.938776 1.224153,1.47532 3.150232,2.76515 4.872572,3.26285 4.070906,1.17635 8.480345,-0.33163 10.970905,-3.75171 0.322001,-0.44217 0.630963,-0.80356 0.686263,-0.80356 0.237609,0 8.438761,4.84184 8.438761,4.98212 0,0.26348 -1.250889,2.04007 -2.24224,3.18482 -2.774559,3.20392 -6.810992,5.52967 -11.105782,6.39961 -1.464689,0.29674 -5.016603,0.43494 -6.363436,0.24753 -2.165363,-0.3013 -4.649618,-1.06036 -6.478156,-1.97973 -4.608023,-2.31687 -8.593857,-6.9404 -10.098093,-11.71401 -2.752105,-8.733669 0.576776,-18.014609 8.241874,-22.98051 1.340528,-0.868471 1.882611,-1.149263 3.405479,-1.763199 1.337389,-0.539163 3.204657,-1.03015 4.779552,-1.256255 0.491265,-0.07053 1.125797,-0.108331 1.822627,-0.117306 z m 23.769609,15.207858 c 0.421878,-0.0041 0.88525,0.05481 0.98857,0.158131 0.08735,0.08731 0.159163,0.443823 0.159163,0.791681 0,0.689743 0.04254,0.721553 1.058333,0.799952 l 0.463021,0.03566 v 0.859896 0.859896 l -0.727604,0.06614 -0.727604,0.06615 v 1.190625 1.190625 l 0.727604,0.06615 0.727604,0.06615 v 0.859896 0.859896 l -0.463021,0.03566 c -1.01583,0.07835 -1.058333,0.110212 -1.058333,0.799952 0,0.347869 -0.07186,0.704381 -0.159163,0.791682 -0.165309,0.1653 -1.252053,0.21766 -1.615921,0.078 -0.149651,-0.0574 -0.209291,-0.256641 -0.209291,-0.700731 0,-0.341468 -0.07186,-0.692496 -0.159163,-0.779796 -0.187611,-0.187632 -1.800492,-0.212391 -2.08566,-0.03204 -0.112612,0.07122 -0.223684,0.417367 -0.264583,0.824757 l -0.07028,0.70229 -0.727604,0.0258 c -0.992229,0.0349 -1.058333,-0.0114 -1.058333,-0.737939 0,-0.343191 -0.07135,-0.695597 -0.158647,-0.782897 -0.08731,-0.08735 -0.4445,-0.158647 -0.79375,-0.158647 h -0.635103 v -0.926041 -0.926042 h 0.635103 c 0.34925,0 0.706451,-0.07135 0.79375,-0.158647 0.09365,-0.09366 0.158647,-0.543975 0.158647,-1.098124 0,-0.554162 -0.06495,-1.004525 -0.158647,-1.098124 -0.08731,-0.08735 -0.4445,-0.158647 -0.79375,-0.158647 h -0.635103 v -0.926041 -0.926042 h 0.569992 c 0.788969,0 0.998297,-0.198718 1.044898,-0.992187 l 0.03876,-0.661459 h 0.859896 0.859895 l 0.07028,0.702281 c 0.04092,0.407392 0.151971,0.753557 0.264583,0.824757 0.26352,0.166629 1.671537,0.159295 1.988508,-0.01033 0.199091,-0.10655 0.256315,-0.279828 0.256315,-0.779798 0,-0.463979 0.05821,-0.664954 0.209291,-0.722953 0.136451,-0.05234 0.374224,-0.07713 0.627351,-0.07958 z m -2.501138,3.587377 c -0.434991,0.0042 -0.576128,0.05798 -0.681096,0.201539 -0.20197,0.27623 -0.223298,1.680369 -0.03101,2.03967 v 5.16e-4 c 0.116139,0.217059 0.281927,0.25573 1.091407,0.25373 0.524949,-0.0011 1.031412,-0.05089 1.125513,-0.110585 0.123288,-0.07812 0.16019,-0.420391 0.132292,-1.221632 l -0.03876,-1.11311 -1.055748,-0.03927 c -0.219784,-0.0082 -0.397608,-0.01224 -0.542602,-0.01085 z"
         id="path79"
         inkscape:connector-curvature="0" />
    </g>
  </g>
</svg>
