<?xml version="1.0" encoding="UTF-8" standalone="no"?>
<!-- Created with Inkscape (http://www.inkscape.org/) -->

<svg
   xmlns:dc="http://purl.org/dc/elements/1.1/"
   xmlns:cc="http://creativecommons.org/ns#"
   xmlns:rdf="http://www.w3.org/1999/02/22-rdf-syntax-ns#"
   xmlns:svg="http://www.w3.org/2000/svg"
   xmlns="http://www.w3.org/2000/svg"
   xmlns:sodipodi="http://sodipodi.sourceforge.net/DTD/sodipodi-0.dtd"
   xmlns:inkscape="http://www.inkscape.org/namespaces/inkscape"
   width="70mm"
   height="70mm"
   viewBox="0 0 70 70"
   version="1.1"
   id="svg8"
   inkscape:version="0.92.4 5da689c313, 2019-01-14"
   sodipodi:docname="cpp-logo.svg">
  <defs
     id="defs2" />
  <sodipodi:namedview
     id="base"
     pagecolor="#ffffff"
     bordercolor="#666666"
     borderopacity="1.0"
     inkscape:pageopacity="0.0"
     inkscape:pageshadow="2"
     inkscape:zoom="0.98994949"
     inkscape:cx="67.356324"
     inkscape:cy="284.70471"
     inkscape:document-units="mm"
     inkscape:current-layer="layer1"
     showgrid="false"
     inkscape:window-width="1920"
     inkscape:window-height="1026"
     inkscape:window-x="0"
     inkscape:window-y="26"
     inkscape:window-maximized="1" />
  <metadata
     id="metadata5">
    <rdf:RDF>
      <cc:Work
         rdf:about="">
        <dc:format>image/svg+xml</dc:format>
        <dc:type
           rdf:resource="http://purl.org/dc/dcmitype/StillImage" />
        <dc:title></dc:title>
      </cc:Work>
    </rdf:RDF>
  </metadata>
  <g
     inkscape:label="Layer 1"
     inkscape:groupmode="layer"
     id="layer1"
     transform="translate(0,-227)">
    <path
       inkscape:connector-curvature="0"
       id="path3931"
       d="M 33.352337,295.39451 C 32.168761,294.96649 7.601694,280.72539 6.9110277,280.06694 6.410177,279.58946 6.1182056,279.08693 5.9596738,278.42949 5.833879,277.9078 5.6631422,277.52265 5.5802652,277.5736 c -0.3345406,0.2057 -0.3989618,-2.2989 -0.3989618,-15.51261 0,-13.25021 0.064065,-15.71851 0.4026174,-15.51036 0.084879,0.0522 0.2558531,-0.21115 0.3799424,-0.58522 0.4675131,-1.40929 1.5103306,-2.10554 13.2448418,-8.8431 6.25838,-3.59335 12.109383,-6.91771 13.002217,-7.38747 0.892842,-0.46977 1.554977,-0.86422 1.471409,-0.87656 -0.08357,-0.0123 0.2012,-0.0927 0.632809,-0.17859 0.78821,-0.15684 2.555751,-0.0319 2.356289,0.16648 -0.05865,0.0584 0.181724,0.2261 0.53421,0.37275 0.352483,0.14664 6.196909,3.44612 12.98761,7.33218 10.676916,6.10999 12.500713,7.21979 13.485206,8.20587 0.747903,0.74911 1.208305,1.39832 1.342025,1.89238 0.134612,0.49733 0.18536,5.86277 0.149829,15.84018 l -0.05376,15.08812 -0.521997,0.97589 c -0.287102,0.53674 -0.816811,1.25354 -1.177123,1.59289 -0.704001,0.66303 -25.323263,14.87028 -26.43401,15.2545 -0.809702,0.28009 -2.848811,0.27648 -3.631105,-0.007 z m 5.204182,-13.71183 c 5.34946,-0.93204 10.203834,-4.02607 13.133129,-8.37066 0.423777,-0.62853 0.727093,-1.21267 0.674034,-1.29808 -0.05309,-0.0854 -1.968582,-1.23067 -4.25672,-2.54503 l -4.160253,-2.38973 -0.49121,0.66255 c -1.481635,1.99845 -3.948271,3.61336 -6.244129,4.08804 -1.520881,0.31445 -3.994817,0.13431 -5.394783,-0.39283 -1.519428,-0.57211 -3.332541,-1.80577 -4.197688,-2.85615 -1.100254,-1.33579 -2.020183,-4.21085 -2.027976,-6.33799 -0.01038,-2.84114 0.861581,-4.98475 2.820427,-6.93352 1.88136,-1.87168 4.150796,-2.81201 6.786636,-2.81201 2.755215,0 4.929518,0.94528 7.017554,3.05088 0.784421,0.79102 1.550548,1.43821 1.702512,1.43821 0.400037,0 8.50968,-4.70302 8.624946,-5.00186 0.296796,-0.76945 -3.3279,-4.80857 -5.810346,-6.47466 -3.987921,-2.67648 -7.673088,-3.70255 -12.569192,-3.49967 -2.891293,0.1198 -4.94927,0.61079 -7.527599,1.79592 -6.4995,2.9875 -11.032998,9.4069 -11.607991,16.43683 -0.370651,4.5316 0.824039,9.66797 2.797449,12.0272 0.376524,0.45014 1.240908,1.52107 1.92086,2.37986 4.298517,5.42908 11.837246,8.24762 18.81034,7.0327 z m 14.494521,-17.37714 0.09809,-0.97589 0.98094,-0.0976 0.980932,-0.0976 0.06103,-0.957 c 0.07126,-1.1174 -0.09195,-1.28028 -1.287193,-1.28455 l -0.833797,-0.003 v -0.76477 c 0,-1.23654 -0.124037,-1.38221 -1.177124,-1.38221 -1.053089,0 -1.177126,0.14567 -1.177126,1.38221 v 0.76477 l -0.833797,0.003 c -1.195239,0.004 -1.358442,0.16715 -1.287193,1.28455 l 0.06102,0.95701 0.980932,0.0976 0.98094,0.0976 0.05591,0.78071 c 0.09013,1.25851 0.127979,1.29528 1.266166,1.23014 l 1.032179,-0.0591 z m 8.278667,0.0488 0.05932,-1.02468 0.878991,-0.0622 c 1.126416,-0.0797 1.377167,-0.30165 1.377167,-1.21883 0,-0.8668 -0.175665,-1.01437 -1.373317,-1.15362 l -0.882841,-0.10265 -0.09809,-0.97589 -0.09809,-0.97589 h -0.98094 -0.98094 l -0.09809,0.97589 -0.09809,0.97589 -0.882846,0.10265 c -1.197641,0.13925 -1.373311,0.28682 -1.373311,1.15362 0,0.91718 0.250753,1.1391 1.377158,1.21883 l 0.878999,0.0622 0.05932,1.02468 0.05932,1.02468 h 1.058524 1.058529 z"
       style="fill:#000000;stroke-width:0.19568209" />
  </g>
</svg>
