<?xml version="1.0" standalone="no"?>
<!DOCTYPE svg PUBLIC "-//W3C//DTD SVG 20010904//EN"
 "http://www.w3.org/TR/2001/REC-SVG-20010904/DTD/svg10.dtd">
<svg version="1.0" xmlns="http://www.w3.org/2000/svg"
 width="400.000000pt" height="400.000000pt" viewBox="0 0 400.000000 400.000000"
 preserveAspectRatio="xMidYMid meet">

<g transform="translate(0.000000,400.000000) scale(0.100000,-0.100000)"
fill="#000000" stroke="none">
<path d="M955 2989 c-343 -49 -667 -312 -785 -637 -47 -131 -62 -213 -63 -347
0 -180 28 -304 104 -459 298 -603 1113 -741 1596 -269 320 314 395 798 185
1193 -198 371 -614 579 -1037 519z"/>
<path d="M2160 1995 l0 -1005 423 2 422 3 3 1003 2 1002 -425 0 -425 0 0
-1005z"/>
<path d="M3060 2578 l0 -423 420 420 c231 231 420 421 420 422 0 2 -189 3
-420 3 l-420 0 0 -422z"/>
<path d="M3060 1835 l0 -265 263 2 262 3 3 263 2 262 -265 0 -265 0 0 -265z"/>
</g>
</svg>
