<?xml version="1.0" encoding="UTF-8" standalone="no"?>
<!-- Created with Inkscape (http://www.inkscape.org/) -->

<svg
   xmlns:dc="http://purl.org/dc/elements/1.1/"
   xmlns:cc="http://creativecommons.org/ns#"
   xmlns:rdf="http://www.w3.org/1999/02/22-rdf-syntax-ns#"
   xmlns:svg="http://www.w3.org/2000/svg"
   xmlns="http://www.w3.org/2000/svg"
   xmlns:sodipodi="http://sodipodi.sourceforge.net/DTD/sodipodi-0.dtd"
   xmlns:inkscape="http://www.inkscape.org/namespaces/inkscape"
   width="70mm"
   height="70mm"
   viewBox="0 0 70 70"
   version="1.1"
   id="svg8"
   inkscape:version="0.92.4 5da689c313, 2019-01-14"
   sodipodi:docname="p5-logo.svg">
  <defs
     id="defs2">
    <path
       id="A"
       d="M-69.65 120.638a139.301 139.301 120 1 1 139.301 0L27.71 47.993a55.418 55.418 120 1 0-55.418 0z" />
  </defs>
  <sodipodi:namedview
     id="base"
     pagecolor="#ffffff"
     bordercolor="#666666"
     borderopacity="1.0"
     inkscape:pageopacity="0.0"
     inkscape:pageshadow="2"
     inkscape:zoom="0.98994949"
     inkscape:cx="-70.024423"
     inkscape:cy="82.674197"
     inkscape:document-units="mm"
     inkscape:current-layer="layer1-6"
     showgrid="false"
     inkscape:window-width="1920"
     inkscape:window-height="1026"
     inkscape:window-x="0"
     inkscape:window-y="26"
     inkscape:window-maximized="1" />
  <metadata
     id="metadata5">
    <rdf:RDF>
      <cc:Work
         rdf:about="">
        <dc:format>image/svg+xml</dc:format>
        <dc:type
           rdf:resource="http://purl.org/dc/dcmitype/StillImage" />
        <dc:title></dc:title>
      </cc:Work>
    </rdf:RDF>
  </metadata>
  <g
     inkscape:label="Layer 1"
     inkscape:groupmode="layer"
     id="layer1"
     transform="translate(0,-227)"
     style="display:inline">
    <g
       transform="translate(-31.258227,-21.928409)"
       id="layer1-6"
       inkscape:label="Layer 1">
      <path
         id="path3388"
         style="fill:#ac9393;stroke-width:0.31403503"
         d="m 36.258227,253.9284 v 60.00001 h 60 V 253.9284 Z m 23.505966,41.64798 c -0.412011,1.16225 -0.99988,2.17439 -1.762037,3.03674 -0.762157,0.86235 -1.686669,1.55072 -2.774163,2.06197 -1.087495,0.51219 -2.319131,0.76845 -3.693024,0.76845 -1.275286,0 -2.443487,-0.26253 -3.505859,-0.78698 -1.063001,-0.52507 -1.881055,-1.23699 -2.455735,-2.13766 h -0.07474 v 11.398 H 40.99949 v -26.99404 h 4.311354 v 2.51167 h 0.112738 c 0.224533,-0.34952 0.518153,-0.70596 0.880861,-1.06836 0.362708,-0.3624 0.806436,-0.6871 1.331498,-0.97508 0.524434,-0.2864 1.11827,-0.52444 1.780565,-0.71223 0.661667,-0.18718 1.405924,-0.28138 2.230887,-0.28138 1.274658,0 2.44914,0.24401 3.524388,0.73107 1.074619,0.48833 1.999445,1.15692 2.774791,2.00639 0.774091,0.8501 1.373893,1.85 1.799407,2.99938 0.424572,1.15 0.637172,2.38731 0.637172,3.71192 0,1.32461 -0.206319,2.56757 -0.618957,3.73014 z m 19.334985,0.59981 c -0.512815,1.16225 -1.206513,2.14362 -2.081094,2.94284 -0.875208,0.80048 -1.900211,1.41317 -3.074693,1.83775 -1.174481,0.42458 -2.424645,0.63718 -3.74892,0.63718 -2.225235,0 -4.100323,-0.51941 -5.624324,-1.55605 -1.048869,-0.71318 -1.897699,-1.61196 -2.555911,-2.68597 l 3.255576,-3.05087 0.05025,-0.0185 c 0.374641,1.05013 0.999251,1.89333 1.87446,2.53082 0.874581,0.63719 1.912458,0.95624 3.112063,0.95624 0.674542,0 1.312028,-0.11211 1.911831,-0.3379 0.600429,-0.22454 1.124864,-0.54893 1.575187,-0.97477 0.449694,-0.42458 0.805807,-0.95625 1.068338,-1.5928 0.262532,-0.63718 0.393797,-1.35601 0.393797,-2.15587 0,-1.02501 -0.175543,-1.87511 -0.525062,-2.54967 -0.350146,-0.67455 -0.805808,-1.21878 -1.36824,-1.6308 -0.562432,-0.41201 -1.194266,-0.69998 -1.893302,-0.86234 -0.699979,-0.16267 -1.412519,-0.24338 -2.136992,-0.24338 -0.500568,0 -1.030969,0.0374 -1.593401,0.11211 -0.562433,0.0754 -1.112618,0.18152 -1.649928,0.31906 -0.537937,0.13755 -1.062372,0.29394 -1.574558,0.46792 -0.512816,0.17555 -0.969105,0.36303 -1.368241,0.56244 l 0.449695,-14.50885 h 15.109049 v 4.04858 H 67.869373 l -0.261903,5.73683 c 0.424572,-0.12499 0.930479,-0.21229 1.518034,-0.26317 0.587555,-0.049 1.118584,-0.0748 1.593401,-0.0748 1.299781,0 2.505666,0.1878 3.617969,0.56244 1.11199,0.37465 2.081094,0.91888 2.90543,1.6308 0.825591,0.71286 1.468415,1.58809 1.930672,2.62441 0.462569,1.0379 0.693697,2.23092 0.693697,3.58065 3.15e-4,1.47504 -0.255936,2.79337 -0.767495,3.95563 z m 11.741049,-14.90266 -1.646472,1.19398 -1.711165,-2.26453 -1.668139,2.20643 -1.603765,-1.22161 1.623863,-2.22338 -2.635362,-0.95059 0.622098,-1.91406 2.64384,0.85229 v -2.73464 h 2.120973 v 2.73873 l 2.624373,-0.792 0.621475,1.91248 -2.616833,0.89281 z m -36.306246,6.6353 c -0.425201,-0.54893 -0.962196,-0.99298 -1.612558,-1.33089 -0.650047,-0.33728 -1.41189,-0.50591 -2.286471,-0.50591 -0.824963,0 -1.56294,0.17492 -2.21236,0.52507 -0.650047,0.35015 -1.206513,0.80048 -1.66814,1.34942 -0.463199,0.5502 -0.812717,1.17513 -1.050125,1.87511 -0.238037,0.7 -0.355799,1.40031 -0.355799,2.09966 0,0.69999 0.117762,1.39371 0.355799,2.0805 0.237408,0.68806 0.586926,1.3064 1.050125,1.85659 0.461941,0.54956 1.018093,0.99362 1.66814,1.33026 0.64942,0.33791 1.387397,0.50592 2.21236,0.50592 0.874581,0 1.636424,-0.17429 2.286471,-0.52445 0.650047,-0.35015 1.187357,-0.79985 1.612558,-1.35004 0.424571,-0.54957 0.743315,-1.1745 0.956229,-1.87449 0.212286,-0.69999 0.318429,-1.39967 0.318429,-2.09965 0,-0.7 -0.106143,-1.3937 -0.318429,-2.08113 -0.212914,-0.68712 -0.531658,-1.30577 -0.956229,-1.85597 z"
         inkscape:connector-curvature="0" />
    </g>
  </g>
</svg>
