<?xml version="1.0" encoding="UTF-8" standalone="no"?>
<!-- Created with Inkscape (http://www.inkscape.org/) -->

<svg
   xmlns:dc="http://purl.org/dc/elements/1.1/"
   xmlns:cc="http://creativecommons.org/ns#"
   xmlns:rdf="http://www.w3.org/1999/02/22-rdf-syntax-ns#"
   xmlns:svg="http://www.w3.org/2000/svg"
   xmlns="http://www.w3.org/2000/svg"
   xmlns:sodipodi="http://sodipodi.sourceforge.net/DTD/sodipodi-0.dtd"
   xmlns:inkscape="http://www.inkscape.org/namespaces/inkscape"
   width="70mm"
   height="70mm"
   viewBox="0 0 70 70"
   version="1.1"
   id="svg8"
   inkscape:version="0.92.4 5da689c313, 2019-01-14"
   sodipodi:docname="react-logo.svg">
  <defs
     id="defs2" />
  <sodipodi:namedview
     id="base"
     pagecolor="#ffffff"
     bordercolor="#666666"
     borderopacity="1.0"
     inkscape:pageopacity="0.0"
     inkscape:pageshadow="2"
     inkscape:zoom="1.8101934"
     inkscape:cx="219.21247"
     inkscape:cy="151.16454"
     inkscape:document-units="mm"
     inkscape:current-layer="layer1"
     showgrid="false"
     inkscape:window-width="1920"
     inkscape:window-height="1026"
     inkscape:window-x="0"
     inkscape:window-y="26"
     inkscape:window-maximized="1" />
  <metadata
     id="metadata5">
    <rdf:RDF>
      <cc:Work
         rdf:about="">
        <dc:format>image/svg+xml</dc:format>
        <dc:type
           rdf:resource="http://purl.org/dc/dcmitype/StillImage" />
        <dc:title></dc:title>
      </cc:Work>
    </rdf:RDF>
  </metadata>
  <g
     inkscape:label="Layer 1"
     inkscape:groupmode="layer"
     id="layer1"
     transform="translate(0,-227)">
    <path
       style="fill:#000000;stroke-width:0.30191323"
       d="m 48.679827,231.1002 c -3.352799,-0.0243 -7.650528,2.17745 -11.980433,6.08376 a 44.814561,46.4602 0 0 0 -1.668265,1.587 40.792884,42.290848 0 0 0 -1.110236,-1.06305 c -6.050452,-5.56956 -12.114747,-7.91608 -15.756285,-5.7307 -3.491797,2.09559 -4.526483,8.3181 -3.056643,16.1047 a 44.747546,46.390729 0 0 0 0.495184,2.30071 c -0.858123,0.25272 -1.686522,0.52223 -2.479412,0.8087 -7.0933059,2.5638 -11.6237371,6.58203 -11.6237371,10.7498 0,4.30496 4.8629532,8.62287 12.2515911,11.2407 a 38.084786,39.483304 0 0 0 1.811408,0.58739 43.829231,45.438689 0 0 0 -0.526024,2.4798 c -1.401344,7.65132 -0.306676,13.7264 3.175929,15.80907 3.597061,2.1503 9.633706,-0.0601 15.512476,-5.38742 0.464644,-0.42112 0.931254,-0.86763 1.39827,-1.33583 a 43.985498,45.600699 0 0 0 1.811409,1.71332 c 5.694333,5.0799 11.317698,7.13121 14.797339,5.04299 3.593797,-2.15677 4.761566,-8.68313 3.245171,-16.62375 -0.11564,-0.6065 -0.250275,-1.22624 -0.401499,-1.85703 0.424019,-0.12973 0.839881,-0.26347 1.245816,-0.40307 C 63.502892,270.56921 68.5,266.30355 68.5,261.94112 c 0,-4.1828 -4.676127,-8.22802 -11.912354,-10.81056 a 44.882167,46.530295 0 0 0 -2.157047,-0.70454 40.77124,42.268403 0 0 0 0.33342,-1.52517 c 1.632627,-8.21632 0.565474,-14.83532 -3.079918,-17.01422 -0.873766,-0.52241 -1.886673,-0.77823 -3.004274,-0.78643 z m -0.146052,2.9608 c 0.678674,-0.0104 1.259845,0.12048 1.720634,0.39593 2.243454,1.34151 3.116315,6.75118 1.706668,13.84521 A 37.813472,39.202028 0 0 1 51.65966,249.683 c -2.779559,-0.66495 -5.798411,-1.16028 -8.958703,-1.46772 -1.841079,-2.71772 -3.748572,-5.18847 -5.663486,-7.32739 a 42.081849,43.627144 0 0 1 1.54083,-1.46549 c 3.864465,-3.48673 7.531635,-5.32457 9.955474,-5.3614 z m -27.100137,0.0662 c 2.587687,0.0508 6.505525,2.0427 10.586817,5.79955 0.333882,0.30744 0.668962,0.62927 1.004917,0.96219 -1.946345,2.16696 -3.869607,4.63402 -5.707129,7.32261 -3.151098,0.30279 -6.167628,0.78917 -8.940665,1.44053 a 41.964725,43.505722 0 0 1 -0.460272,-2.13966 c -1.259165,-6.67141 -0.423265,-11.70426 1.681067,-12.96703 0.490367,-0.29429 1.110713,-0.43233 1.835265,-0.41819 z m 13.598656,8.88242 c 1.320098,1.48263 2.641742,3.13834 3.942271,4.93455 a 84.283791,87.378794 0 0 0 -7.918291,-0.002 c 1.301713,-1.77958 2.635166,-3.43245 3.97602,-4.93233 z m -0.032,7.80422 c 2.074441,0 4.120112,0.0821 6.11212,0.23974 a 86.199,89.364324 0 0 1 3.228299,5.34342 93.823668,97.268972 0 0 1 2.888477,5.57344 86.229245,89.395682 0 0 1 -2.879166,5.62226 93.841457,97.287425 0 0 1 -3.214333,5.37654 c -1.987858,0.14727 -4.041981,0.22344 -6.135397,0.22344 -2.084821,0 -4.112988,-0.0671 -6.066153,-0.19849 a 81.186066,84.167312 0 0 1 -3.27485,-5.38466 80.455444,83.409857 0 0 1 -2.858219,-5.59677 81.205637,84.187602 0 0 1 2.84949,-5.59947 v -5.2e-4 a 80.43113,83.384658 0 0 1 3.248665,-5.36086 c 1.992601,-0.15615 4.035817,-0.23807 6.101067,-0.23807 z m -9.775671,0.61776 a 84.148873,87.238915 0 0 0 -2.054054,3.49939 84.578826,87.68466 0 0 0 -1.891127,3.5921 c -0.833512,-2.04942 -1.546757,-4.06463 -2.129118,-6.01052 1.911652,-0.44361 3.95034,-0.80587 6.074299,-1.08097 z m 19.555995,0.005 c 2.137896,0.27972 4.185995,0.65168 6.109212,1.10698 -0.577319,1.91849 -1.297381,3.92473 -2.144829,5.9813 a 99.754623,103.4177 0 0 0 -1.927204,-3.61493 91.025722,94.368283 0 0 0 -2.037179,-3.47335 z m -28.408795,1.80394 c 0.838553,2.82718 1.938324,5.78306 3.265539,8.7723 -1.344414,3.03381 -2.460008,6.03723 -3.306271,8.89765 a 35.258376,36.553101 0 0 1 -1.653718,-0.53695 c -3.267036,-1.15767 -5.9653339,-2.66221 -7.8147169,-4.3037 -1.6616877,-1.47558 -2.5009421,-2.94035 -2.5009424,-4.12915 0,-2.52901 3.6376344,-5.75519 9.7040983,-7.94793 a 41.297856,42.814362 0 0 1 2.306011,-0.75222 z m 37.292435,0.0442 c 0.685255,0.20593 1.350722,0.42233 1.991794,0.65135 6.200192,2.2124 9.982239,5.48421 9.982239,8.00487 0,2.68524 -4.08495,6.17147 -10.71658,8.44968 -0.366198,0.12573 -0.742263,0.24729 -1.125365,0.36502 -0.848041,-2.78301 -1.992812,-5.74283 -3.392971,-8.8 1.336406,-2.98492 2.436563,-5.90583 3.260883,-8.67092 z m -4.891907,12.11005 c 0.895485,2.11625 1.650588,4.1636 2.250148,6.11041 -1.942785,0.45954 -4.040077,0.82942 -6.250026,1.1043 a 100.08583,103.76112 0 0 0 2.056961,-3.53413 90.92194,94.260697 0 0 0 1.942917,-3.68058 z m -27.489418,0.10691 a 84.061104,87.147924 0 0 0 1.899273,3.59373 84.587719,87.693875 0 0 0 2.103515,3.56717 c -2.194235,-0.2539 -4.263324,-0.59753 -6.174383,-1.02884 0.591554,-1.98037 1.320292,-4.03867 2.171595,-6.13206 z m 30.52453,8.86122 c 0.136396,0.57183 0.257843,1.13226 0.362516,1.68028 0.670424,3.51129 0.765965,6.68606 0.32178,9.16778 -0.399113,2.22995 -1.201556,3.7164 -2.193707,4.31189 -2.111503,1.26715 -6.626884,-0.37984 -11.496304,-4.72412 -0.558345,-0.49793 -1.121161,-1.02989 -1.685139,-1.59243 1.887931,-2.14075 3.77498,-4.62949 5.616354,-7.39305 3.239165,-0.29786 6.299387,-0.78539 9.0745,-1.45035 z m -33.468869,0.13294 c 2.744276,0.62927 5.781656,1.08186 9.028529,1.35481 1.853536,2.7043 3.794927,5.19032 5.751354,7.36705 a 35.245032,36.539272 0 0 1 -1.276074,1.2187 c -2.599576,2.35603 -5.204857,4.02707 -7.5005,4.86782 -2.062876,0.75528 -3.706265,0.77641 -4.699304,0.18283 -2.113581,-1.2635 -2.9916,-6.14189 -1.79337,-12.68507 a 41.069833,42.577962 0 0 1 0.489365,-2.30614 z m 20.705802,1.5707 c -1.30468,1.83833 -2.621759,3.51914 -3.932964,5.01588 -1.356569,-1.5177 -2.709716,-3.19635 -4.0313,-5.00181 1.282738,0.0524 2.590871,0.0788 3.920162,0.0788 1.365761,0 2.715404,-0.0316 4.044102,-0.0935 z"
       id="path4089"
       inkscape:connector-curvature="0" />
    <path
       style="fill:#000000;stroke-width:0.30191323"
       inkscape:connector-curvature="0"
       d="m 35,255.79727 c 3.304397,0 5.982846,2.77718 5.982846,6.20258 0,3.42572 -2.678449,6.20288 -5.982846,6.20288 -3.304102,0 -5.982847,-2.77716 -5.982847,-6.20288 0,-3.4254 2.678745,-6.20258 5.982847,-6.20258"
       id="path4093" />
  </g>
</svg>
