<svg width="512" height="512" viewBox="0 0 512 512" fill="none" xmlns="http://www.w3.org/2000/svg">
<circle cx="256" cy="256" r="256" fill="black"/>
<path d="M392.809 235.226H392.71C390.298 242.484 388.901 250.04 388.559 257.68C387.966 273.378 389.556 282.929 387.75 293.1C385.953 303.272 380.607 313.281 367.012 328.979C350.838 347.668 325.212 362.117 295.597 367.005C290.089 370.527 284.275 373.744 278.156 376.619C301.204 385.29 325.302 385.766 344.405 379.494C378.064 368.451 375.458 360.517 390.544 337.407C394.875 330.838 400.184 324.969 406.287 320.002C421.984 326.849 437.439 331.234 447.08 330.156C452.255 318.142 446.945 304.224 438.131 291.07C445.364 268.607 434.393 246.116 410.096 238.164C403.753 236.089 398.056 235.109 392.809 235.217V235.226ZM411.049 268.202C412.383 268.176 413.702 268.436 414.916 268.967C416.13 269.497 417.211 270.284 418.084 271.275C418.881 272.181 419.489 273.239 419.872 274.386C420.255 275.534 420.406 276.75 420.316 277.964C420.227 279.178 419.899 280.367 419.351 281.463C418.803 282.558 418.046 283.539 417.123 284.349C416.202 285.16 415.133 285.784 413.977 286.187C412.821 286.59 411.6 286.763 410.385 286.696C409.171 286.629 407.985 286.324 406.896 285.798C405.808 285.272 404.837 284.535 404.04 283.63C403.243 282.724 402.636 281.666 402.253 280.519C401.87 279.371 401.719 278.155 401.808 276.941C401.898 275.727 402.226 274.538 402.774 273.443C403.321 272.347 404.079 271.366 405.002 270.556C406.68 269.081 408.831 268.246 411.049 268.202ZM260.428 368.155C260.698 368.316 260.994 368.46 261.273 368.622L262.144 368.289L260.428 368.155Z" fill="#787878"/>
<path d="M271.911 95.5406C258.757 95.4687 245.261 100.716 233.67 111.984C218.44 126.765 213.713 140.072 216.382 156.686L217.11 161.241L212.563 160.495C179.102 155.077 137.698 157.818 90.5878 176.876C104.443 182.806 129.854 192.717 158.067 206.257L167.008 210.561L157.286 212.538C120.042 220.086 75.8429 241.893 35.4719 289.479C53.5324 288.078 90.444 283.729 128.937 283.792C150.331 283.828 171.42 285.31 188.599 289.767C205.779 294.215 221.396 304.413 223.588 311.88C225.781 319.347 224.541 323.282 222.375 329.132C220.21 334.981 213.543 343.84 204.315 349.708C195.087 355.575 183.406 360.688 171.249 365.037C146.944 373.744 121.075 379.305 109.655 380.366C107.229 380.59 106.249 381.462 105.315 383.16C104.38 384.867 103.868 387.527 103.787 390.321C103.697 394.05 104.272 396 105.315 397.474C106.357 398.947 108.01 399.54 109.717 399.657C181.483 404.509 235.152 386.449 274.122 370.994C318.958 350.436 347.289 309.849 353.435 273.306C357.299 250.402 356.463 239.18 352.752 229.628C349.032 220.068 341.907 211.577 332.867 195.376C327.063 184.953 323.819 174.737 321.816 165.222L321.384 163.218L322.984 161.933C339.597 148.626 353.12 134.079 358.026 123.503C347.963 112.783 330.54 110.519 311.06 112.604L309.461 112.765L308.338 111.624C297.96 101.049 285.066 95.6304 271.911 95.5406ZM277.752 120.286C283.457 120.196 288.498 124.159 289.864 129.811C291.481 136.46 287.483 143.145 280.95 144.726C277.777 145.461 274.443 144.905 271.679 143.181C268.916 141.458 266.95 138.707 266.215 135.534C264.597 128.885 268.587 122.2 275.119 120.619C275.979 120.411 276.867 120.3 277.752 120.286Z" fill="#ECECEC"/>
<path d="M359.473 149.273C355.042 149.197 350.618 149.665 346.3 150.665L345.42 150.899C340.13 156.09 334.595 161.026 328.833 165.689C330.765 174.198 333.622 183.057 338.681 192.133C347.469 207.875 354.711 216.285 358.961 227.211C363.211 238.137 363.948 250.986 360.003 274.402C355.115 303.425 337.45 334.172 309.425 356.86C331.169 350.516 349.706 338.818 361.989 324.639C375.224 309.337 379.645 300.684 381.199 291.959C382.745 283.244 381.289 273.683 381.918 257.456C382.305 247.006 384.533 237.868 387.363 229.826L388.046 227.894L390.077 227.624C408.2 225.279 424.58 220.652 433.054 215.189C430.331 202.96 418.776 193.462 403.474 186.256L402.018 185.564L401.65 183.992C396.798 163.146 380.525 149.713 359.473 149.273ZM370.004 175.016C371.087 175.014 372.163 175.181 373.193 175.51C375.877 176.366 378.104 178.273 379.384 180.812C380.665 183.352 380.894 186.315 380.022 189.051C379.59 190.406 378.899 191.665 377.99 192.755C377.081 193.844 375.971 194.744 374.724 195.401C373.477 196.059 372.118 196.462 370.724 196.587C369.329 196.712 367.928 196.557 366.598 196.131C363.917 195.273 361.692 193.365 360.413 190.826C359.134 188.287 358.906 185.325 359.778 182.59C360.48 180.396 361.85 178.478 363.689 177.116C365.528 175.753 367.74 175.018 370.004 175.016Z" fill="#B2B2B2"/>
</svg>
