<svg width="512" height="512" viewBox="0 0 512 512" fill="none" xmlns="http://www.w3.org/2000/svg">
<path d="M24 255.703C24.1344 126.465 129.07 21.837 258.326 22.0002C387.583 22.1634 492.173 127.07 492 256.307C491.827 385.545 387.122 490 258 490C128.695 489.933 23.9328 385.046 24 255.741V255.703ZM253.258 335.827C235.105 336.357 216.953 334.73 199.183 330.98C192.721 329.663 186.668 326.82 181.529 322.687C176.39 318.555 172.314 313.253 169.64 307.225C164.349 295.022 161.789 276.204 161.962 250.769C162.059 237.478 162.892 224.203 164.458 211.005C165.98 198.15 167.503 187.557 169.026 179.225L170.629 170.942C170.648 170.7 170.648 170.456 170.629 170.213C170.625 169.094 170.231 168.012 169.514 167.154C168.798 166.295 167.803 165.713 166.703 165.51L136.518 160.807H135.865C134.797 160.817 133.764 161.184 132.927 161.848C132.091 162.512 131.5 163.436 131.248 164.473C130.73 166.393 130.433 167.842 129.53 172.449C127.803 181.337 126.209 190.004 124.434 202.645C122.572 216.374 121.438 230.192 121.036 244.041C120.374 253.688 120.374 263.37 121.036 273.017C121.746 298.612 126.142 319.069 134.224 334.387C142.305 349.706 155.992 360.718 175.284 367.424C194.576 374.149 221.451 377.441 255.908 377.3H260.246C294.741 377.441 321.616 374.149 340.869 367.424C360.123 360.699 373.81 349.686 381.93 334.387C390.011 319.069 394.41 298.612 395.127 273.017C395.78 263.37 395.78 253.689 395.127 244.041C394.722 230.192 393.584 216.374 391.72 202.645C389.954 190.167 388.351 181.529 386.633 172.449C385.673 167.842 385.423 166.412 384.905 164.473C384.662 163.431 384.074 162.501 383.236 161.835C382.398 161.17 381.359 160.807 380.288 160.807H379.511L349.325 165.51C348.213 165.695 347.203 166.27 346.477 167.131C345.751 167.993 345.355 169.086 345.361 170.213C345.342 170.456 345.342 170.7 345.361 170.942L346.954 179.225C348.477 187.582 350.016 198.175 351.571 211.005C353.114 224.205 353.935 237.479 354.028 250.769C354.284 276.159 351.725 294.962 346.35 307.177C343.698 313.196 339.648 318.496 334.537 322.636C329.425 326.776 323.4 329.637 316.961 330.98C299.205 334.74 281.066 336.376 262.924 335.856L253.258 335.827Z" fill="#3544B1"/>
</svg>
